<svg width="721" height="181" viewBox="0 0 721 181" fill="none" xmlns="http://www.w3.org/2000/svg">
<rect width="721" height="181" fill="white"/>
<path d="M306.659 15.1265C298.596 17.9069 278.151 28.9436 271.679 33.6659C265.208 38.3882 234.95 45.2093 228.304 53.9543C221.658 62.6993 220.084 69.8702 213.263 64.973C206.442 60.0758 205.742 53.2547 208.54 53.6045C211.339 53.9543 217.985 64.7981 218.16 70.3949C218.335 75.9917 232.852 78.7901 228.129 87.71C223.407 96.6299 221.658 101.702 231.277 113.945C240.897 126.188 280.075 154.697 283.398 159.244C286.721 163.791 304.91 180.582 316.803 177.958C328.697 175.335 330.271 164.316 333.594 165.191C336.917 166.065 337.616 148.4 341.989 148.575C346.361 148.75 372.771 162.742 388.163 165.54C403.554 168.339 404.078 164.666 410.2 163.092C416.321 161.518 429.264 166.59 429.439 171.837C429.614 177.084 430.488 177.434 433.112 173.236C435.735 169.038 436.61 159.419 445.705 159.944C454.799 160.468 474.913 162.042 479.985 147.351C485.057 132.659 489.08 128.637 494.327 127.412C499.574 126.188 501.498 114.12 507.794 114.295C514.09 114.47 520.037 112.546 517.414 106.599C514.79 100.653 509.368 99.4282 507.619 93.6565C505.87 87.8848 493.277 82.288 488.03 79.8394C482.783 77.3908 479.285 82.9876 474.213 79.1398C469.141 75.292 460.921 69.6952 461.97 67.2466C463.02 64.798 463.195 55.0036 467.917 57.2773C472.639 59.551 469.841 64.6231 467.217 65.1478C464.594 65.6725 454.799 61.3 448.853 56.7526C442.906 52.2052 428.914 42.4108 429.439 49.057C429.964 55.7032 435.211 60.4255 429.964 62.5243C424.717 64.6231 425.591 73.3681 420.344 71.2693C415.097 69.1705 404.778 51.1558 400.93 50.4563C397.082 49.7567 395.858 43.6352 402.679 40.1372C409.5 36.6392 404.253 29.993 399.181 30.6926C394.109 31.3922 394.284 35.5898 387.813 30.6926C381.341 25.7954 367.464 21.2009 362.802 21.4229C351.783 21.9476 357.158 9.69813 351.259 5.85678C343.738 0.959578 342.689 6.38148 341.989 11.6285C341.289 16.8755 333.244 20.1986 327.647 18.2747C322.05 16.3508 324.324 2.35878 312.081 2.00898C299.838 1.65918 316.803 11.6285 306.659 15.1265Z" stroke="#3A3939" stroke-width="1.65" stroke-miterlimit="10"/>
</svg>
