<svg width="726" height="364" viewBox="0 0 726 364" fill="none" xmlns="http://www.w3.org/2000/svg">
<rect width="726" height="364" fill="white"/>
<path d="M368.882 17.5588C352.267 45.4653 315.963 32.5186 311.616 14.9123C307.269 -2.69392 286.442 -0.123401 270.743 4.05231C255.044 8.22798 235.968 20.6299 206.094 35.8407C176.22 51.0515 144.759 45.4583 138.383 66.8641C132.007 88.2699 152.368 92.7093 141.633 109.463C130.898 126.216 126.072 128.573 137.853 138.643C149.634 148.713 154.22 156.337 151.838 164.488C149.457 172.639 154.131 168.301 155.265 183.16C156.399 198.02 151.032 206.397 164.639 227.289C178.247 248.181 166.063 259.065 181.522 264.872C196.982 270.678 246.058 270.954 251.778 293.438C257.498 315.923 249.913 321.478 240.35 314.23C230.787 306.981 249.409 288.636 270.992 295.972C292.575 303.308 317.384 300.436 325.334 312.788C333.285 325.14 348.946 359.826 364.343 351.688C379.739 343.549 379.677 329.605 389.693 342.797C399.71 355.989 395.413 365.281 411.037 360.115C426.661 354.949 439.916 344.98 458.828 343.55C477.74 342.121 480.65 340.904 495.115 346.786C509.579 352.667 543.711 367.026 545.324 361.922C546.937 356.818 525.82 342.472 535.258 321.832C544.695 301.191 561.339 270.042 575.892 263.96C590.445 257.878 598.093 266.267 587.093 240.196C576.094 214.126 600.651 234.19 593.759 235.707C586.867 237.224 566.594 220.822 562.865 198.187C559.135 175.552 547.216 150.547 536.116 149.394C525.016 148.24 515.075 136.038 535.373 126.533C555.671 117.028 556.704 78.0912 548.754 65.7392C540.804 53.3872 534.265 7.05175 511.296 7.7914C488.327 8.53105 375.093 7.12557 368.882 17.5588Z" stroke="#3A3939" stroke-width="1.65" stroke-miterlimit="10"/>
</svg>
