<svg width="726" height="364" viewBox="0 0 726 364" fill="none" xmlns="http://www.w3.org/2000/svg">
<g clip-path="url(#clip0_241_500)">
<rect width="726" height="364" fill="white"/>
<path d="M355.988 16.645C339.366 44.6968 303.046 31.6827 298.697 13.9848C294.348 -3.71315 273.512 -1.12925 257.805 3.0682C242.099 7.2656 223.015 19.7321 193.127 35.0221C163.24 50.312 131.765 44.6898 125.386 66.207C119.008 87.7242 139.378 92.1867 128.638 109.027C117.898 125.868 113.07 128.238 124.856 138.36C136.642 148.482 141.23 156.146 138.848 164.339C136.465 172.533 141.142 168.171 142.276 183.109C143.411 198.046 138.041 206.466 151.654 227.467C165.268 248.467 153.078 259.409 168.545 265.245C184.011 271.081 233.109 271.359 238.832 293.961C244.554 316.562 236.966 322.146 227.399 314.86C217.831 307.574 236.462 289.133 258.055 296.507C279.648 303.881 304.467 300.995 312.421 313.411C320.375 325.828 336.043 360.694 351.447 352.513C366.851 344.333 366.788 330.315 376.809 343.576C386.83 356.837 382.532 366.178 398.162 360.984C413.793 355.791 427.054 345.77 445.974 344.333C464.895 342.896 467.807 341.674 482.277 347.586C496.748 353.498 530.896 367.931 532.509 362.801C534.123 357.671 512.997 343.25 522.438 322.502C531.88 301.753 548.532 270.442 563.091 264.329C577.65 258.215 585.301 266.648 574.297 240.442C563.293 214.235 587.861 234.404 580.965 235.929C574.07 237.454 553.789 220.966 550.058 198.214C546.327 175.461 534.402 150.326 523.297 149.166C512.192 148.006 502.246 135.741 522.553 126.187C542.861 116.632 543.895 77.4925 535.941 65.0762C527.987 52.6599 521.445 6.08325 498.466 6.82675C475.486 7.57025 362.203 6.15745 355.988 16.645Z" stroke="#3A3939" stroke-width="1.65" stroke-miterlimit="10"/>
</g>
<defs>
<clipPath id="clip0_241_500">
<rect width="726" height="364" fill="white"/>
</clipPath>
</defs>
</svg>
