<svg width="726" height="523" viewBox="0 0 726 523" fill="none" xmlns="http://www.w3.org/2000/svg">
<rect width="726" height="523" fill="white"/>
<path d="M163.515 331.324C162.544 302.686 123.711 247.294 152.774 228.972C181.837 210.649 201.423 201.804 201.423 182.85C201.423 163.896 188.787 104.506 217.218 101.347C245.65 98.1878 318.939 68.4929 320.203 38.1663C321.466 7.83964 264.604 -7.95561 265.867 14.7894C267.131 37.5344 298.09 75.4428 335.366 72.9156C372.643 70.3884 399.179 62.1749 418.764 52.6978C438.35 43.2207 493.949 49.5387 500.899 64.0703C507.849 78.6018 522.381 99.4514 517.958 128.515C513.535 157.578 524.908 165.791 536.28 199.277C547.653 232.763 577.98 275.094 540.071 278.253C502.163 281.412 430.769 292.152 433.296 320.584C435.823 349.015 507.217 395.137 492.686 419.777C478.154 444.418 440.878 475.376 443.405 485.485C445.932 495.594 466.15 511.389 466.15 496.226C466.15 481.062 451.618 477.903 425.714 489.908C399.81 501.912 396.651 501.912 376.433 507.598C356.216 513.285 351.161 515.812 323.994 502.544C296.826 489.276 253.863 491.803 241.859 500.017C229.854 508.23 210.268 506.335 217.218 472.849C224.168 439.363 256.39 402.087 227.959 397.032C199.528 391.978 166.042 405.877 163.515 331.324Z" stroke="#3A3939" stroke-width="1.65" stroke-miterlimit="10"/>
</svg>
