<svg width="721" height="561" viewBox="0 0 721 561" fill="none" xmlns="http://www.w3.org/2000/svg">
<g clip-path="url(#clip0_241_139)">
<rect width="721" height="561" fill="white"/>
<path d="M175.971 165.733C171.428 152.299 164.788 156.367 166.291 149.279C167.793 142.19 159.081 130.879 152.482 134.83C145.884 138.78 119.572 140.61 110.728 133.797C101.885 126.985 91.6459 124.814 86.7297 126.653C81.8135 128.491 92.0142 113.371 87.1923 106.999C82.3704 100.627 64.7455 102.241 58.8149 103.041C52.8843 103.841 43.0991 103.413 49.2439 97.7203C55.3886 92.0274 65.9595 79.0427 62.5095 70.0815C59.0596 61.1202 45.4543 49.5948 51.5863 38.1382C57.7183 26.6815 52.7294 21.0976 77.6697 21.8578C102.61 22.618 118.899 27.3054 112.072 16.8052C105.245 6.3051 131.007 -2.6364 140.996 0.715351C150.984 4.06715 153.862 21.5487 164.578 23.4087C175.295 25.2688 229.658 27.301 241.513 40.9514C249.617 50.282 294.321 69.4282 302.902 71.6585C311.482 73.8888 329.464 68.6476 345.527 72.4639C361.589 76.2802 360.076 91.1849 370.088 92.4841C380.1 93.7834 376.673 82.7697 389.622 89.6294C402.57 96.489 454.421 112.007 450.413 117.329C446.404 122.652 456.429 129.715 451.763 130.372C447.097 131.029 457.454 122.937 459.066 126.982C460.677 131.027 458.721 136.373 469.831 138.317C480.941 140.26 552.677 184.271 551.791 165.155C551.451 157.817 570.161 157.115 585.694 176.045C590.354 181.723 642.776 217.361 649.578 216.334C656.38 215.307 686.704 235.314 683.755 223.99C680.806 212.666 668.883 199.028 667.607 206.988C666.332 214.947 684.712 236.949 673.687 248.192C662.663 259.434 593.609 284.3 573.144 285.723C552.679 287.146 527.133 304.775 531.048 307.662C534.962 310.55 537.648 317.291 528.71 318.689C519.772 320.086 453.326 379.248 455.881 390.488C458.436 401.729 455.934 427.123 464.574 431.012C473.214 434.901 477.284 444.817 466.808 449.591C456.331 454.366 430.76 460.468 422.074 474.263C413.389 488.059 391.911 502.024 400.337 510.806C408.763 519.587 414.48 523.679 417.498 515.266C420.516 506.853 399.347 507.715 383.357 511.321C367.367 514.927 350.266 512.125 341.594 531.685C332.921 551.244 317.088 561.879 310.858 554.386C304.627 546.893 291.429 541.215 286.943 546.848C282.457 552.481 279.473 551.025 265.153 546.755C250.832 542.485 220.366 534.793 199.555 532.027C178.743 529.262 143.66 531.701 135.69 538.241C127.719 544.782 122.604 570.856 104.129 557.064C85.6549 543.272 80.4864 532.712 78.8622 522.903C77.2379 513.095 85.1229 493.368 71.7316 476.95C58.3404 460.532 29.3786 459.331 29.0193 449.379C28.6599 439.427 33.2982 413.663 45.457 406.775C57.6158 399.888 68.4008 382.011 75.3115 392.117C82.2222 402.224 72.3899 405.901 66.2196 400.066C60.0494 394.232 53.781 369.448 65.3065 355.842C76.8319 342.237 93.4188 341.638 87.5226 332.57C81.6264 323.501 65.5945 282.657 72.4561 283.288C79.3177 283.92 98.1259 296.136 103.507 288.224C108.887 280.312 112.774 258.092 118.823 247.029C124.871 235.966 134.892 215.869 131.442 206.908C127.992 197.947 128.506 201.348 140.081 197.217C151.655 193.087 180.018 177.701 175.971 165.733Z" stroke="#3A3939" stroke-width="1.5" stroke-miterlimit="10"/>
<path d="M702.707 384.716C695.892 376.828 683.607 377.272 683.626 385.918C683.645 394.563 693.132 393.488 698.377 400.773C703.623 408.057 716.089 400.206 702.707 384.716Z" stroke="#3A3939" stroke-width="1.5" stroke-miterlimit="10"/>
<path d="M640.166 385.656C628.514 387.153 598.731 404.958 601.479 408.009C603.101 409.811 612.365 409.574 619.128 408.389C623.819 407.567 627.307 406.289 626.207 404.918C623.521 401.571 612.919 422.47 620.643 425.342C628.367 428.214 632.94 427.023 634.006 432.187C635.072 437.351 639.878 436.518 649.551 424.371C659.224 412.225 663.813 399.31 653.566 399.607C643.318 399.904 644.212 394.229 645.742 389.924C647.272 385.619 646.511 384.841 640.166 385.656Z" stroke="#3A3939" stroke-width="1.5" stroke-miterlimit="10"/>
<path d="M542.888 431.081C531.945 433.502 524.354 441.349 530.691 446.396C537.028 451.442 555.589 443.958 553.763 438.015C551.936 432.073 546.45 430.293 542.888 431.081Z" stroke="#3A3939" stroke-width="1.5" stroke-miterlimit="10"/>
<path d="M536.582 459.372C534.024 461.676 545.587 469.305 546.822 464.937C548.056 460.57 539.634 456.624 536.582 459.372Z" stroke="#3A3939" stroke-width="1.5" stroke-miterlimit="10"/>
</g>
<defs>
<clipPath id="clip0_241_139">
<rect width="721" height="561" fill="white"/>
</clipPath>
</defs>
</svg>
