<svg width="726" height="684" viewBox="0 0 726 684" fill="none" xmlns="http://www.w3.org/2000/svg">
<rect width="726" height="684" fill="white"/>
<path d="M112.312 477.735C112.312 477.735 183.153 349.827 166.335 311.754C149.517 273.681 57.4365 181.619 47.0697 154.671C36.7028 127.724 53.7385 110.456 80.9758 123.738C108.213 137.019 189.334 139.146 194.618 125.144C199.901 111.142 216.823 45.7381 198.078 49.6916C179.332 53.645 193.313 104.824 226.159 108.737C259.005 112.65 287.731 118.78 330.082 55.4957C356.657 15.786 362.983 -4.11293 378.311 15.8425C393.64 35.7979 447.914 105.072 482.945 129.337C533.175 164.129 583.863 176.281 597.37 172.689C610.878 169.097 597.009 155.739 591.415 163.391C585.822 171.042 578.883 183.673 575.907 210.61C572.931 237.548 586.845 275.688 560.078 277.469C514.655 280.49 497.779 345.605 486.146 346.275C474.512 346.944 477.726 331.852 486.853 330.865C495.979 329.878 523.205 335.143 524.676 353.659C526.148 372.175 508.75 481.677 522.92 488.945C537.09 496.213 557.26 505.993 550.856 520.709C534.428 558.461 488.42 587.636 463.856 566.656C439.293 545.675 412.276 527.59 383.302 526.863C354.329 526.136 329.243 541.831 326.35 566.968C323.457 592.104 315.408 603.166 289.605 596.568C263.801 589.97 212.744 539.497 209.436 548.37C206.128 557.243 175.473 555.235 156.286 543.526C137.098 531.816 76.6142 509.79 112.312 477.735Z" stroke="#3A3939" stroke-width="1.65" stroke-miterlimit="10"/>
<path d="M610.338 606.864C598.247 603.246 573.788 616.218 581.71 634.029C589.632 651.84 605.308 690.462 620.35 677.314C635.393 664.166 645.654 575.785 638.405 572.254C619.769 563.177 622.208 610.417 610.338 606.864Z" stroke="#3A3939" stroke-width="1.65" stroke-miterlimit="10"/>
</svg>
