<svg width="726" height="216" viewBox="0 0 726 216" fill="none" xmlns="http://www.w3.org/2000/svg">
<rect width="726" height="216" fill="white"/>
<path d="M362.697 41.1691C351.428 40.6569 333.29 38.9705 333.84 50.5134C334.39 62.0564 334.39 60.6822 328.069 64.8047C321.747 68.9272 293.165 74.6987 281.622 63.1557C270.079 51.6128 253.864 39.2453 250.841 50.7883C247.818 62.3312 248.917 69.4769 243.695 70.0265C238.473 70.5762 216.487 79.9205 218.411 69.202C220.334 58.4836 229.953 63.4305 232.152 67.0034C234.351 70.5762 235.175 79.9205 227.755 87.0661C220.334 94.2118 217.861 87.0661 216.487 98.6091C215.113 110.152 222.808 112.9 218.136 116.198C213.464 119.496 213.464 124.443 204.944 127.466C196.424 130.49 198.348 124.993 202.745 119.496C207.142 114 214.013 127.741 211.54 134.887C209.066 142.033 223.632 156.874 234.351 168.966C245.069 181.059 261.559 192.052 276.4 202.496C291.241 212.939 304.433 215.413 311.579 212.39C318.724 209.366 323.122 202.77 331.367 201.396C339.612 200.022 367.095 192.052 371.767 186.83C376.439 181.608 383.86 182.433 395.952 183.532C408.045 184.632 434.154 187.655 434.979 180.784C435.803 173.913 445.697 173.089 451.743 172.814C457.79 172.539 454.217 181.059 470.157 135.437C486.097 89.8144 495.991 67.8278 512.756 62.606C529.521 57.3842 539.964 48.3147 535.842 40.0697C531.719 31.8248 522.375 43.0929 518.802 33.4738C515.23 23.8547 507.534 14.7852 500.663 16.1593C493.793 17.5335 489.395 25.2288 479.226 18.6328C469.058 12.0369 455.316 11.4872 461.088 4.06673C466.859 -3.35372 467.684 11.762 449.82 9.56338C431.955 7.36473 424.81 2.14288 418.214 11.2124C411.618 20.2818 401.174 32.0996 394.028 35.1228C386.883 38.1459 373.691 28.8016 372.592 36.4969C371.492 44.1922 376.164 50.7882 377.813 47.2154C379.462 43.6426 368.744 41.4439 362.697 41.1691Z" stroke="#3A3939" stroke-width="1.65" stroke-miterlimit="10"/>
</svg>
