<svg width="721" height="190" viewBox="0 0 721 190" fill="none" xmlns="http://www.w3.org/2000/svg">
<g clip-path="url(#clip0_241_654)">
<rect width="721" height="190" fill="white"/>
<path d="M246.371 44.9908C243.817 42.3796 255.176 42.0032 258.017 36.4188C260.858 30.8343 276.775 14.8991 291.19 13.1268C305.605 11.3544 310.109 19.1825 316.508 16.4569C322.906 13.7314 332.104 14.3531 331.338 18.4943C330.571 22.6355 323.883 15.2481 328.163 13.5648C332.444 11.8814 349.195 11.072 355.874 12.7795C362.552 14.4871 380.028 18.4681 384.735 15.1152C389.443 11.7622 403.626 4.13135 402.697 1.1892C401.768 -1.753 396.616 1.24259 401.485 4.97304C406.355 8.70349 407.381 18.1276 415.132 18.5011C422.882 18.8746 433.728 19.7226 441.557 24.5511C449.387 29.3795 456.567 35.6988 463.033 42.9075C469.499 50.1162 479.001 44.2124 478.645 53.9898C478.289 63.7672 478.156 73.7233 472.921 74.0904C467.686 74.4575 468.962 71.2752 472.371 70.9041C475.78 70.5329 494.175 71.7763 490.401 76.245C486.627 80.7137 467.767 88.2451 466.377 92.2514C464.987 96.2576 465.956 101.427 460.137 103.887C454.318 106.346 452.984 105.274 450.349 118.343C447.714 131.412 444.09 148.444 445.103 154.014C446.115 159.585 450.061 167.879 455.043 161.453C460.024 155.027 455.11 150.896 450.634 150.774C446.157 150.653 432.689 157.395 430.012 158.903C427.336 160.412 415.973 162.258 416.715 169.075C417.457 175.893 415.505 182.192 411.46 178.575C407.414 174.957 405.527 181.858 403.139 184.147C400.751 186.436 388.754 182.467 385.476 184.041C382.198 185.615 364.192 189.808 363.847 184.773C363.502 179.738 367.437 173.02 358.116 167.543C348.795 162.065 339.81 155.942 335.931 157.582C332.052 159.222 326.9 162.217 327.063 148.809C327.226 135.4 336.271 134.619 331.457 125.81C326.643 117.001 319.197 110.102 303.823 112.384C288.449 114.667 283.186 107.327 275.239 105.149C267.292 102.971 255.56 69.7572 254.484 72.9177C253.408 76.0782 245.758 100.852 249.991 100.594C254.223 100.336 251.394 50.1249 246.371 44.9908Z" stroke="#3A3939" stroke-width="1.65" stroke-miterlimit="10"/>
</g>
<defs>
<clipPath id="clip0_241_654">
<rect width="721" height="190" fill="white"/>
</clipPath>
</defs>
</svg>
