<svg width="729" height="222" viewBox="0 0 729 222" fill="none" xmlns="http://www.w3.org/2000/svg">
<rect width="729" height="222" fill="white"/>
<g clip-path="url(#clip0_241_140)">
<path d="M354.048 189.064C348.053 187.544 345.08 178.499 341.203 180.464C337.325 182.43 331.993 186.361 329.084 180.956C326.176 175.551 322.056 162.774 319.875 164.986C317.693 167.197 316.482 172.602 313.088 171.374C309.695 170.145 308.484 161.792 306.787 164.003C305.09 166.214 296.365 171.619 296.123 169.654C295.881 167.688 297.577 164.986 293.215 166.46C288.852 167.934 288.125 170.145 289.822 172.111C291.518 174.076 283.762 174.322 282.551 175.305C281.339 176.288 277.946 184.641 270.19 184.887C262.435 185.133 258.072 179.727 252.255 179.236C246.439 178.745 241.591 180.464 241.834 177.27C242.076 174.076 248.862 171.619 256.618 172.848C264.373 174.076 281.339 171.865 277.219 167.688C273.098 163.511 252.74 152.947 250.559 158.598C248.377 164.249 254.437 169.162 262.919 169.408C271.402 169.654 285.944 171.128 283.762 164.986C281.581 158.843 276.734 153.192 280.612 152.947C284.49 152.701 294.669 150.244 292.245 147.05C289.822 143.856 274.068 134.765 274.068 132.8C274.068 130.834 272.371 126.412 275.037 125.92C277.703 125.429 286.913 117.321 291.276 108.23C295.638 99.1396 305.09 53.1947 307.756 52.7033C310.422 52.2119 310.665 58.1086 315.512 56.6344C320.359 55.1602 323.752 53.9318 323.995 59.0914C324.237 64.251 324.722 68.9192 327.145 68.6735C329.569 68.4278 334.659 71.6218 331.266 74.3244C327.873 77.0271 319.875 74.8158 319.147 78.7469C318.42 82.6781 322.298 82.6781 322.056 85.6264C321.813 88.5747 316.724 95.2085 318.663 97.4197C320.602 99.631 326.903 100.859 331.023 103.808C335.143 106.756 343.626 107.985 346.534 102.334C349.443 96.6827 359.864 92.9973 359.38 89.0662C358.895 85.1351 364.469 73.096 365.681 76.5358C366.893 79.9755 362.773 78.9927 355.987 79.2384C349.2 79.4841 346.534 72.1133 347.262 68.9192C347.989 65.7252 351.624 59.3372 349.685 59.8285C347.746 60.32 350.17 62.7769 342.899 61.057C335.628 59.3371 338.536 58.3543 338.052 52.212C337.567 46.0696 334.901 33.2935 347.504 27.3968C360.107 21.5001 372.71 15.8492 373.194 18.3061C373.679 20.763 376.588 23.7114 374.164 24.2027C371.74 24.6941 370.044 19.2889 378.526 18.3061C387.009 17.3233 396.946 12.6551 400.339 13.1465C403.732 13.6379 407.368 13.6379 407.852 19.5345C408.337 25.4312 413.427 27.3967 416.335 28.6252C419.243 29.8537 419.971 32.5563 419.971 35.5047C419.971 38.453 424.091 45.3324 419.001 51.4748C413.911 57.6172 414.881 56.8801 415.123 63.2682C415.366 69.6562 415.85 74.5701 412.215 74.8158C408.579 75.0615 399.612 73.833 399.127 76.0443C398.643 78.2555 395.007 86.3634 400.824 87.8376C406.641 89.3118 412.7 92.0144 412.215 89.0661C411.73 86.1177 407.61 88.0833 410.761 91.523C413.911 94.9628 414.639 94.9628 413.911 100.122C413.184 105.282 415.366 106.019 410.761 110.933C406.156 115.847 401.066 113.636 399.127 117.567C397.188 121.498 403.49 121.498 403.732 125.183C403.975 128.869 404.459 135.257 400.581 133.291C396.704 131.326 389.19 132.308 385.555 135.748C381.92 139.188 374.406 131.326 373.194 134.028C371.983 136.731 361.561 138.451 363.015 142.873C364.469 147.296 375.133 154.421 376.345 165.723C377.557 177.025 367.378 179.727 368.59 185.133C369.801 190.538 374.891 192.995 375.618 189.064C376.345 185.133 371.013 187.344 367.135 193.241C363.258 199.137 358.168 201.103 360.834 202.823C363.5 204.543 372.225 205.771 369.559 212.651C366.893 219.53 365.681 221.496 356.714 221.004C347.746 220.513 345.323 213.879 349.201 210.194C353.078 206.508 364.712 191.766 354.048 189.064Z" stroke="#3A3939" stroke-width="1.65" stroke-miterlimit="10"/>
<path d="M271.766 137.345C270.559 136.887 266.07 138.082 265.343 139.679C264.616 141.276 269.463 138.451 271.039 140.048C272.614 141.645 270.796 143.61 273.099 145.822C275.401 148.033 279.158 146.804 280.975 149.138C282.793 151.473 282.43 151.473 285.217 150.858C288.004 150.244 285.823 149.384 282.066 145.207C278.309 141.031 274.674 138.451 271.766 137.345Z" stroke="#3A3939" stroke-width="1.65" stroke-miterlimit="10"/>
<path d="M271.644 148.893C270.799 144.894 268.615 145.453 266.07 145.699C263.525 145.944 254.921 143.61 256.376 147.419C257.83 151.227 262.071 147.787 264.01 149.998C265.949 152.21 266.434 153.07 268.978 153.93C271.523 154.789 275.765 153.684 275.401 152.21C275.037 150.735 272.008 150.613 271.644 148.893Z" stroke="#3A3939" stroke-width="1.65" stroke-miterlimit="10"/>
<path d="M277.098 156.264C274.541 156.264 271.281 156.141 271.402 157.861C271.523 159.581 277.703 166.337 279.521 163.143C281.339 159.949 278.673 156.264 277.098 156.264Z" stroke="#3A3939" stroke-width="1.65" stroke-miterlimit="10"/>
<path d="M347.868 97.0513C343.349 100.814 339.991 105.405 336.234 103.685C332.478 101.965 327.791 95.7983 327.146 96.9285C325.813 99.2626 327.751 103.071 329.084 98.894C330.417 94.7172 330.539 92.7516 335.628 88.9434C340.718 85.1351 344.111 79.7299 348.716 80.5898C353.321 81.4497 358.289 81.0812 357.683 85.1351C357.077 89.1891 351.261 94.2259 347.868 97.0513Z" stroke="#3A3939" stroke-width="1.65" stroke-miterlimit="10"/>
<path d="M311.755 34.399C306.601 36.8581 305.09 41.5242 305.333 45.3324C305.575 49.1407 309.574 47.4209 309.695 45.4553C309.817 43.4898 313.452 45.0868 314.543 40.91C315.633 36.7332 313.816 33.4163 311.755 34.399Z" stroke="#3A3939" stroke-width="1.65" stroke-miterlimit="10"/>
<path d="M322.298 24.5715C316.355 25.5227 312.119 29.8539 312.967 30.8367C313.816 31.8195 315.876 28.134 319.026 27.5198C322.177 26.9056 324.601 24.2029 322.298 24.5715Z" stroke="#3A3939" stroke-width="1.65" stroke-miterlimit="10"/>
<path d="M340.354 14.2523C336.355 14.8665 326.661 17.2006 327.146 19.6576C327.63 22.1145 327.994 20.0261 333.326 18.9205C338.658 17.8148 335.386 17.2006 338.9 16.9549C342.414 16.7092 345.565 16.095 345.202 14.1294C344.838 12.1639 340.354 14.2523 340.354 14.2523Z" stroke="#3A3939" stroke-width="1.65" stroke-miterlimit="10"/>
<path d="M362.894 12.6551C363.536 9.40268 354.411 13.0237 352.957 12.6551C351.503 12.2866 345.686 13.1465 348.231 14.8664C350.776 16.5862 349.564 14.8664 354.896 14.7435C360.228 14.6207 362.773 13.2694 362.894 12.6551Z" stroke="#3A3939" stroke-width="1.65" stroke-miterlimit="10"/>
<path d="M377.557 9.09254C373.8 9.82964 370.771 9.46109 370.771 11.4266C370.771 13.3922 372.589 12.9008 373.679 12.5323C374.77 12.1637 382.768 10.1982 382.647 9.58395C382.526 8.96973 377.557 9.09254 377.557 9.09254Z" stroke="#3A3939" stroke-width="1.65" stroke-miterlimit="10"/>
<path d="M388.585 5.77588C386.767 6.63579 383.737 7.8643 386.04 8.35566C388.342 8.84707 388.585 5.77588 388.585 5.77588Z" stroke="#3A3939" stroke-width="1.65" stroke-miterlimit="10"/>
<path d="M401.672 0.861816C398.037 1.1075 395.25 2.58169 396.461 4.42437C397.673 6.26706 398.158 5.16147 400.824 4.05582C403.49 2.95018 401.672 0.861816 401.672 0.861816Z" stroke="#3A3939" stroke-width="1.65" stroke-miterlimit="10"/>
<path d="M391.978 6.26688C390.697 7.42108 393.432 9.0924 393.795 8.10962C394.159 7.12685 393.068 5.28416 391.978 6.26688Z" stroke="#3A3939" stroke-width="1.65" stroke-miterlimit="10"/>
</g>
<defs>
<clipPath id="clip0_241_140">
<rect width="181.37" height="221.912" fill="white" transform="translate(241)"/>
</clipPath>
</defs>
</svg>
