<svg width="726" height="979" viewBox="0 0 726 979" fill="none" xmlns="http://www.w3.org/2000/svg">
<g clip-path="url(#clip0_241_138)">
<rect width="726" height="979" fill="white"/>
<path d="M571.844 199.917C570.04 180.976 551.144 178.128 558.77 161.786C566.396 145.444 574.023 150.891 564.217 129.102C554.412 107.313 551.144 55.0188 531.533 44.1241C511.923 33.2295 485.776 24.5138 474.881 10.3508C463.987 -3.81225 450.913 -5.9912 449.824 20.1559C448.734 46.303 466.166 58.2871 437.84 47.3925C409.514 36.4979 385.545 26.6927 388.814 48.4819C392.082 70.2712 399.709 74.629 384.456 74.629C369.204 74.629 340.878 109.492 346.325 121.476C351.772 133.46 340.878 155.249 333.251 169.412C325.625 183.575 331.072 206.454 314.73 206.454C298.388 206.454 311.462 223.885 296.21 258.748C280.957 293.611 263.526 308.863 275.51 316.49C287.494 324.116 299.478 345.905 276.599 351.353C253.721 356.8 234.11 346.995 224.305 384.036C214.5 421.078 236.289 473.372 218.858 490.804C201.426 508.235 213.41 523.488 222.126 534.382C230.842 545.277 258.078 552.903 240.647 567.066C223.216 581.229 214.5 557.261 217.768 596.482C221.037 635.702 210.142 648.776 192.711 659.67C175.279 670.565 194.889 694.533 181.816 703.249C168.742 711.965 161.116 698.891 160.027 715.233C158.937 731.575 191.621 751.185 186.174 771.885C180.726 792.585 166.563 798.032 187.263 824.179C207.963 850.326 219.947 877.563 207.963 887.368C195.979 897.173 195.979 970.167 222.126 971.257C248.273 972.346 272.241 993.046 275.51 960.362C278.778 927.678 298.388 905.889 310.373 909.157C322.357 912.426 392.781 817.865 383.73 851.053C370.656 898.989 353.225 929.494 344.509 917.873C326.727 894.164 376.103 836.163 379.372 795.853C382.64 755.543 386.998 737.022 405.519 730.485C424.04 723.949 422.224 726.491 441.834 701.433C461.445 676.376 464.35 649.139 449.097 631.708C433.845 614.276 440.019 599.024 421.498 596.845C402.977 594.666 392.082 619.723 395.351 575.055C398.619 530.388 382.277 470.467 412.782 441.415C451.951 404.111 505.386 382.947 510.834 342.637C516.281 302.327 486.865 305.595 498.85 288.164C510.834 270.732 498.85 257.659 519.549 231.512C540.249 205.364 574.023 222.796 571.844 199.917Z" stroke="#3A3939" stroke-width="1.65" stroke-miterlimit="10"/>
<path d="M440.145 847.38C433.712 839.433 431.676 820.28 438.451 804.472C445.226 788.663 472.891 771.161 475.714 775.678C478.537 780.195 475.149 790.922 467.245 796.003C459.341 801.084 454.26 803.343 458.212 813.505C462.164 823.668 449.743 859.236 440.145 847.38Z" stroke="#060606" stroke-width="1.65" stroke-miterlimit="10"/>
</g>
<defs>
<clipPath id="clip0_241_138">
<rect width="726" height="979" fill="white"/>
</clipPath>
</defs>
</svg>
