<svg width="726" height="208" viewBox="0 0 726 208" fill="none" xmlns="http://www.w3.org/2000/svg">
<rect width="726" height="208" fill="white"/>
<path d="M273.464 113.967C257.027 108.214 234.745 133.327 222.691 128.578C210.637 123.83 202.236 116.159 197.487 120.542C192.739 124.925 170.092 134.788 175.206 140.632C180.32 146.477 180.685 139.902 183.242 136.614C185.799 133.327 165.709 113.967 158.038 117.985C150.367 122.003 130.642 150.495 139.044 154.147C147.445 157.8 151.463 150.86 159.864 160.357C168.265 169.854 166.074 173.142 175.936 168.758C185.799 164.375 188.721 158.896 191.643 164.01C194.565 169.124 195.661 171.681 200.41 171.681C205.158 171.681 208.811 177.89 215.021 177.525C221.23 177.16 220.134 159.992 232.188 160.722C244.242 161.453 268.716 162.914 278.213 158.165C287.71 153.417 285.153 152.321 280.039 151.225C274.925 150.129 266.524 156.704 277.117 166.567C287.71 176.429 295.746 186.292 314.01 188.118C332.273 189.944 364.418 192.501 376.106 195.789C387.795 199.076 400.58 205.286 406.424 201.633C412.268 197.98 424.322 183.004 434.55 180.812C444.778 178.621 464.137 173.507 469.982 174.603C475.826 175.699 480.575 180.447 477.652 173.507C474.73 166.567 474.73 158.896 487.88 153.782C501.03 148.668 500.665 138.806 497.012 132.962C493.359 127.117 497.012 121.273 501.395 117.255C505.779 113.237 506.509 107.027 499.934 104.835C493.359 102.644 494.82 93.512 499.569 92.7814C504.317 92.0509 514.545 85.4759 513.449 80.7274C512.353 75.9788 506.509 79.9968 506.874 85.8412C507.24 91.6856 513.449 99.7216 521.12 96.7994C528.791 93.8772 530.252 75.2483 524.042 63.9248C517.833 52.6013 508.701 52.236 510.527 39.0861C512.353 25.9362 512.719 16.4391 502.126 16.4391C491.533 16.4391 496.647 18.996 484.227 18.996C471.808 18.996 445.508 7.30725 435.281 8.0378C425.053 8.76835 416.652 -2.55515 415.556 6.5767C414.46 15.7085 418.843 21.9182 410.807 23.3793C402.771 24.8404 407.52 34.3375 396.196 34.7028C384.873 35.0681 360.4 13.5169 357.843 20.0919C355.286 26.6668 361.13 39.4514 353.459 40.1819C345.789 40.9125 339.579 38.7208 337.022 49.679C334.465 60.6372 324.603 63.1942 319.124 65.7511C313.644 68.308 300.129 70.4996 309.992 82.1884C319.854 93.8772 331.543 122.003 322.776 121.273C314.01 120.542 310.722 112.141 305.608 107.392C300.495 102.644 280.039 114.333 279.309 109.949C278.578 105.566 284.788 104.105 285.518 107.758C286.249 111.41 280.77 116.524 273.464 113.967Z" stroke="#3A3939" stroke-width="1.65" stroke-miterlimit="10"/>
</svg>
