<svg width="726" height="299" viewBox="0 0 726 299" fill="none" xmlns="http://www.w3.org/2000/svg">
<rect width="726" height="299" fill="white"/>
<path d="M330.411 96.968C321.062 100.941 321.119 123.391 328.669 129.489C336.218 135.587 344.349 127.457 347.543 149.234C350.737 171.012 350.446 176.238 367.578 193.08C384.71 209.921 391.679 216.309 397.195 219.213C402.712 222.116 404.164 219.213 405.906 227.633C407.649 236.054 409.972 237.506 415.489 243.604C421.006 249.701 430.007 262.768 426.522 262.768C423.038 262.768 424.49 258.122 427.684 258.412C430.878 258.703 435.524 265.091 442.202 271.188C448.881 277.286 457.301 288.901 466.012 293.547C474.723 298.193 475.014 298.483 472.401 291.804C469.787 285.126 457.011 286.868 449.752 283.384C442.493 279.899 434.072 270.898 433.201 270.317C432.33 269.737 422.167 265.091 420.134 263.639C418.102 262.187 417.521 261.606 413.746 256.96C409.972 252.315 384.71 228.214 379.193 227.633C373.676 227.053 368.159 218.051 360.028 219.793C351.898 221.536 342.897 228.214 337.96 222.116C333.024 216.019 338.541 204.985 328.378 202.371C318.215 199.758 314.15 192.499 310.666 191.337C307.182 190.176 292.082 172.754 295.276 168.108C298.471 163.462 307.762 158.816 314.731 165.204C321.7 171.592 301.084 166.947 294.986 156.784C288.888 146.621 280.468 144.588 280.468 134.135C280.468 123.682 287.437 112.358 278.726 106.841C270.015 101.324 269.724 99.5814 265.369 94.0644C261.013 88.5474 255.786 80.9978 251.721 88.257C247.656 95.5162 238.364 116.132 233.719 119.617C229.073 123.101 220.071 112.648 218.619 105.098C217.168 97.5488 213.102 78.0942 211.651 75.1905C210.199 72.2869 208.747 72.8676 209.037 75.1905C209.328 77.5135 218.91 78.3846 226.169 78.0942C233.428 77.8039 249.979 77.8039 258.109 74.6098C266.24 71.4158 272.047 61.5433 267.401 60.6722C262.755 59.8011 262.755 63.5759 271.176 71.1254C279.597 78.675 281.629 77.8039 284.243 76.0617C286.856 74.3195 291.792 76.6424 294.986 78.675C298.18 80.7075 302.536 81.2883 303.116 77.8039C303.697 74.3195 309.214 63.5759 306.02 62.9951C302.826 62.4144 299.342 58.6396 302.536 56.0263C305.73 53.413 317.344 58.0589 320.829 49.0575C324.313 40.0561 323.152 36.8621 321.119 32.5066C319.087 28.1511 319.087 25.5378 327.507 23.2148C335.928 20.8919 341.155 18.569 344.639 15.3749C348.123 12.1809 344.349 11.6002 349.866 12.4713C355.383 13.3424 352.479 8.40614 352.769 4.92174C353.06 1.43734 359.448 0.856591 365.836 4.34099C372.224 7.82539 377.16 7.53504 382.096 14.2135C387.033 20.8919 394.582 22.0534 397.195 28.1511C399.809 34.2488 403.874 45.2828 410.552 44.9924C417.231 44.702 419.844 44.9924 422.748 49.0576C425.651 53.1227 437.556 58.059 454.688 54.8649C471.82 51.6709 466.593 56.0264 470.658 50.5094C474.724 44.9924 475.595 39.7658 481.402 46.1539C487.209 52.542 487.209 59.2205 487.209 62.9952C487.209 66.77 488.371 69.0929 492.436 69.964C496.501 70.8351 488.661 73.1581 490.984 79.8365C493.307 86.515 491.274 94.0645 499.405 96.3875C507.535 98.7104 518.279 98.4201 517.117 94.6453C515.956 90.8705 494.178 90.5801 495.92 99.0008C497.663 107.421 498.243 119.617 492.726 120.198C487.209 120.778 484.306 117.875 479.369 111.196C474.433 104.518 460.786 102.195 455.85 102.485C450.913 102.776 439.879 100.453 438.428 102.485C436.976 104.518 423.328 105.679 414.908 103.937C406.487 102.195 386.742 91.1609 384.419 93.1934C382.096 95.226 377.45 99.2911 370.191 97.2586C362.932 95.226 364.094 114.681 355.673 111.777C347.252 108.873 342.026 92.0317 330.411 96.968Z" stroke="#3A3939" stroke-width="1.65" stroke-miterlimit="10"/>
<path d="M249.979 99.8716C248.376 101.475 258.69 113.228 255.787 115.842C252.883 118.455 248.237 120.197 249.108 117.003C249.979 113.809 251.722 112.648 252.302 121.939C252.883 131.231 254.045 147.201 258.981 144.879C263.917 142.556 258.4 121.068 260.142 117.003C261.884 112.938 253.464 100.743 253.754 99.2909C254.044 97.8391 251.722 98.1294 249.979 99.8716Z" stroke="#3A3939" stroke-width="1.65" stroke-miterlimit="10"/>
<path d="M384.129 235.764C383.684 237.768 374.837 238.087 368.449 237.796C362.061 237.506 363.223 233.15 360.609 231.118C357.996 229.085 361.48 229.666 368.74 230.247C375.999 230.827 384.71 233.15 384.129 235.764Z" stroke="#3A3939" stroke-width="1.65" stroke-miterlimit="10"/>
<path d="M395.453 246.798C390.517 247.379 377.16 248.54 374.837 245.927C372.514 243.314 366.417 239.539 366.707 241.862C366.997 244.185 360.609 242.733 360.029 245.056C359.448 247.379 364.384 249.702 373.966 249.992C383.548 250.282 398.647 249.992 398.938 248.831C399.228 247.669 395.453 246.798 395.453 246.798Z" stroke="#3A3939" stroke-width="1.65" stroke-miterlimit="10"/>
<path d="M391.098 259.284C384.995 258.452 378.612 261.316 375.999 258.993C373.385 256.67 373.385 259.284 372.224 261.316C371.062 263.349 374.257 267.704 381.516 267.414C388.775 267.124 387.033 263.639 394.002 263.059C400.97 262.478 397.486 260.155 391.098 259.284Z" stroke="#3A3939" stroke-width="1.65" stroke-miterlimit="10"/>
<path d="M405.326 257.251C399.228 254.057 398.357 257.541 393.711 254.928C389.065 252.315 390.517 254.638 391.969 255.799C393.421 256.961 402.132 260.155 407.939 262.768C413.747 265.381 421.586 269.737 423.909 270.608C426.232 271.479 425.361 265.091 420.135 263.639C414.908 262.187 405.326 257.251 405.326 257.251Z" stroke="#3A3939" stroke-width="1.65" stroke-miterlimit="10"/>
<path d="M428.265 276.318C419.091 273.452 406.971 270.511 408.133 272.64C409.294 274.77 420.909 278.254 424.78 278.254C428.652 278.254 429.039 278.641 430.394 278.448C431.749 278.254 431.362 277.286 428.265 276.318Z" stroke="#3A3939" stroke-width="1.65" stroke-miterlimit="10"/>
<path d="M345.801 253.283C343.574 253.654 339.8 250.96 339.412 253.283C339.025 255.606 350.059 259.477 351.414 256.767C352.769 254.057 351.608 252.315 345.801 253.283Z" stroke="#3A3939" stroke-width="1.65" stroke-miterlimit="10"/>
<path d="M304.375 191.918C304.375 186.416 296.438 180.303 297.987 185.53C299.535 190.757 304.375 193.66 304.375 191.918Z" stroke="#3A3939" stroke-width="1.65" stroke-miterlimit="10"/>
<path d="M275.532 111.97C273.265 109.022 268.563 101.71 266.046 99.7742C263.53 97.8384 260.82 103.646 260.045 104.227C259.271 104.807 261.401 112.55 264.885 111.776C268.369 111.002 269.918 108.292 269.724 111.583C269.531 114.873 274.177 120.294 275.145 118.164C276.112 116.035 277.468 114.486 275.532 111.97Z" stroke="#3A3939" stroke-width="1.65" stroke-miterlimit="10"/>
<path d="M291.792 159.978C290.342 155.143 280.758 141.588 278.435 142.362C276.112 143.136 278.048 147.395 276.887 148.75C275.725 150.105 274.757 154.751 277.855 155.912C280.952 157.074 281.92 155.332 283.275 158.235C284.63 161.139 288.308 162.107 289.276 161.72C290.243 161.333 292.373 161.913 291.792 159.978Z" stroke="#3A3939" stroke-width="1.65" stroke-miterlimit="10"/>
<path d="M295.277 190.37C292.76 187.079 289.082 184.95 286.372 180.11C283.662 175.271 280.178 172.173 278.435 172.367C276.693 172.561 277.661 173.528 281.726 177.787C285.791 182.046 286.953 186.692 291.405 189.595C295.857 192.499 295.277 190.37 295.277 190.37Z" stroke="#3A3939" stroke-width="1.65" stroke-miterlimit="10"/>
<path d="M294.115 178.754C293.147 176.818 287.727 169.269 287.34 171.785C286.953 174.302 290.824 181.271 292.76 180.69C294.696 180.109 294.115 178.754 294.115 178.754Z" stroke="#3A3939" stroke-width="1.65" stroke-miterlimit="10"/>
<path d="M357.415 234.119C353.546 239.093 346.381 229.86 346.768 228.892C347.156 227.924 358.77 232.376 357.415 234.119Z" stroke="#3A3939" stroke-width="1.65" stroke-miterlimit="10"/>
</svg>
