<svg width="726" height="747" viewBox="0 0 726 747" fill="none" xmlns="http://www.w3.org/2000/svg">
<rect width="726" height="747" fill="white"/>
<path d="M292.707 309.717C323.779 323.622 350.136 400.108 418.848 413.392C487.56 426.677 533.158 519.297 535.216 547.371C537.274 575.444 503.453 614.615 524.031 625.807C544.608 637 605.449 547.715 581.757 527.73C548.664 499.815 565.549 412.493 608.739 424.145C645.654 434.104 663.85 482.904 635.262 477.944C606.674 472.983 553.615 374.832 515.402 354.075C477.189 333.319 416.527 218.085 337.385 178.021C300.969 159.587 328.629 106.691 360.604 100.114C392.58 93.5362 413.635 91.9928 409.284 71.1435C404.934 50.2942 355.368 34.1704 345.21 17.9804C335.051 1.79049 317.883 -1.40116 272.076 9.01259C226.269 19.4263 192.256 68.7061 165.586 70.661C138.916 72.6159 91.6428 88.7821 82.2947 76.7664C72.9467 64.7507 74.5377 57.578 88.5744 56.5491C102.611 55.5202 91.6942 89.484 84.8486 101.981C78.0029 114.478 58.1348 161.093 87.9206 163.144C117.706 165.194 133.389 186.624 121.973 194.517C110.556 202.41 103.688 176.1 130.854 171.286C158.02 166.473 171.27 173.969 195.1 181.395C218.929 188.821 233.653 206.793 236.291 223.534C238.93 240.276 264.255 296.985 292.707 309.717Z" stroke="#3A3939" stroke-width="1.65" stroke-miterlimit="10"/>
<path d="M481.312 630.227C462.567 628.465 441.442 638.202 402.707 635.989C363.971 633.776 335.031 636.839 338.798 649.734C342.566 662.629 412.98 673.461 421.108 694.504C429.236 715.547 443.298 727.688 467.011 717.482C490.724 707.277 478.542 695.104 484.446 672.98C490.351 650.855 500.259 632.009 481.312 630.227Z" stroke="#3A3939" stroke-width="1.65" stroke-miterlimit="10"/>
<path d="M113.426 424.466C118.945 443.005 135.689 497.158 125.445 524.252C115.2 551.345 136.199 555.451 156.237 546.456C176.276 537.46 200.621 471.701 191.326 434.75C182.032 397.799 107.011 402.916 113.426 424.466Z" stroke="#3A3939" stroke-width="1.65" stroke-miterlimit="10"/>
</svg>
